<mxfile host="app.diagrams.net" modified="2024-09-25T15:07:15.905Z" agent="Mozilla/5.0 (Windows NT 10.0; Win64; x64) AppleWebKit/537.36 (KHTML, like Gecko) Chrome/129.0.0.0 Safari/537.36" version="24.6.5" etag="K7M-31_Fpckannz8YvTC" type="github">
  <diagram name="Page-1" id="3iCd6do5I3j05v7nC-1J">
    <mxGraphModel>
      <root>
        <mxCell id="0" />
        <mxCell id="1" parent="0" />
      </root>
    </mxGraphModel>
  </diagram>
</mxfile>
